<svg width="21" height="20" viewBox="0 0 21 20" fill="none" xmlns="http://www.w3.org/2000/svg">
<g id="basil:add-solid" clip-path="url(#clip0_0_422)">
<path id="Vector" fill-rule="evenodd" clip-rule="evenodd" d="M4.84107 0.312135C8.60206 -0.104045 12.3976 -0.104045 16.1586 0.312135C18.241 0.545142 19.921 2.18226 20.1653 4.2684C20.6113 8.07617 20.6113 11.9229 20.1653 15.7306C20.0417 16.7443 19.5787 17.6866 18.8514 18.4047C18.1242 19.1228 17.1753 19.5746 16.1586 19.6869C12.3977 20.1044 8.60199 20.1044 4.84107 19.6869C3.82438 19.5746 2.87548 19.1228 2.14823 18.4047C1.42097 17.6866 0.95799 16.7443 0.834346 15.7306C0.388327 11.9233 0.388327 8.07698 0.834346 4.26961C0.957937 3.25612 1.42074 2.31399 2.14775 1.59591C2.87477 0.877837 3.82338 0.425901 4.83985 0.313349L4.84107 0.312135ZM10.4998 3.94073C10.7416 3.94073 10.9735 4.03663 11.1445 4.20732C11.3155 4.37801 11.4116 4.60952 11.4116 4.85091V9.08994H15.6578C15.8996 9.08994 16.1315 9.18583 16.3024 9.35653C16.4734 9.52722 16.5695 9.75873 16.5695 10.0001C16.5695 10.2415 16.4734 10.473 16.3024 10.6437C16.1315 10.8144 15.8996 10.9103 15.6578 10.9103H11.4116V15.1493C11.4116 15.3907 11.3155 15.6222 11.1445 15.7929C10.9735 15.9636 10.7416 16.0595 10.4998 16.0595C10.258 16.0595 10.0261 15.9636 9.85514 15.7929C9.68416 15.6222 9.58811 15.3907 9.58811 15.1493V10.9103H5.34191C5.1001 10.9103 4.8682 10.8144 4.69722 10.6437C4.52624 10.473 4.43018 10.2415 4.43018 10.0001C4.43018 9.75873 4.52624 9.52722 4.69722 9.35653C4.8682 9.18583 5.1001 9.08994 5.34191 9.08994H9.58811V4.85091C9.58811 4.60952 9.68416 4.37801 9.85514 4.20732C10.0261 4.03663 10.258 3.94073 10.4998 3.94073Z" fill="white"/>
</g>
<defs>
<clipPath id="clip0_0_422">
<rect width="20" height="20" fill="white" transform="translate(0.5)"/>
</clipPath>
</defs>
</svg>
