<svg xmlns="http://www.w3.org/2000/svg" width="17" height="16" viewBox="0 0 17 16" fill="none">
  <path d="M7.45315 2.09067L8.1469 1.39692C8.44065 1.10317 8.91565 1.10317 9.20627 1.39692L15.2813 7.4688C15.575 7.76255 15.575 8.23755 15.2813 8.52817L9.20627 14.6032C8.91252 14.8969 8.43752 14.8969 8.1469 14.6032L7.45315 13.9094C7.15627 13.6125 7.16252 13.1282 7.46565 12.8375L11.2313 9.25005L2.25002 9.25005C1.8344 9.25005 1.50002 8.91567 1.50002 8.50005L1.50002 7.50005C1.50002 7.08442 1.8344 6.75005 2.25002 6.75005L11.2313 6.75005L7.46565 3.16255C7.1594 2.87192 7.15315 2.38755 7.45315 2.09067Z" fill="#818181"/>
</svg>