<svg xmlns="http://www.w3.org/2000/svg" width="24" height="24" viewBox="0 0 24 24" fill="none">
  <path d="M12.0002 7.79995C10.9754 7.79995 10.0598 8.26795 9.455 8.99995C9.08179 9.45224 8.83584 9.9958 8.74246 10.5747C8.64907 11.1536 8.71163 11.7469 8.92368 12.2936C9.13574 12.8403 9.48963 13.3206 9.94895 13.6852C10.4083 14.0497 10.9564 14.2852 11.537 14.3676C12.3262 12.8452 13.6752 11.6884 15.3002 11.1408V11.1C15.3002 10.302 15.017 9.56995 14.5454 8.99995C13.9406 8.26795 13.025 7.79995 12.0002 7.79995ZM22.4126 13.1064C21.694 12.2653 20.775 11.6189 19.7407 11.2267C18.7063 10.8345 17.5898 10.7092 16.4942 10.8624C16.461 10.2117 16.2861 9.57605 15.9818 8.99995H21.0002C21.4776 8.99995 21.9354 9.18959 22.273 9.52716C22.6106 9.86472 22.8002 10.3226 22.8002 10.8V11.4C22.8002 11.976 22.6682 12.5568 22.4126 13.1064ZM11.0486 15.6C10.8832 16.1856 10.7996 16.7914 10.8002 17.4C10.8002 19.5564 11.8334 21.4704 13.433 22.674C12.9601 22.7589 12.4806 22.8011 12.0002 22.8C8.2322 22.8 6.0002 20.3652 6.0002 18V17.4C5.99956 17.1634 6.04569 16.929 6.13592 16.7104C6.22616 16.4917 6.35872 16.293 6.52599 16.1257C6.69326 15.9585 6.89194 15.8259 7.11062 15.7357C7.32929 15.6454 7.56364 15.5993 7.8002 15.6H11.0486ZM5.1782 15.9408C2.6462 15.2556 1.2002 13.3044 1.2002 11.4V10.8C1.2002 10.3226 1.38984 9.86472 1.7274 9.52716C2.06497 9.18959 2.52281 8.99995 3.0002 8.99995H8.0198C7.67768 9.64701 7.49928 10.368 7.5002 11.1C7.4994 11.7196 7.62693 12.3327 7.87476 12.9007C8.1226 13.4686 8.48536 13.9791 8.9402 14.4H7.8002C7.2655 14.3998 6.74048 14.5426 6.27948 14.8135C5.81849 15.0844 5.43827 15.4736 5.1782 15.9408ZM7.2002 1.19995C8.07541 1.19995 8.91478 1.54763 9.53365 2.1665C10.1525 2.78537 10.5002 3.62474 10.5002 4.49995C10.5002 5.37517 10.1525 6.21453 9.53365 6.8334C8.91478 7.45227 8.07541 7.79995 7.2002 7.79995C6.32498 7.79995 5.48561 7.45227 4.86674 6.8334C4.24787 6.21453 3.9002 5.37517 3.9002 4.49995C3.9002 3.62474 4.24787 2.78537 4.86674 2.1665C5.48561 1.54763 6.32498 1.19995 7.2002 1.19995ZM16.8002 1.19995C17.6754 1.19995 18.5148 1.54763 19.1336 2.1665C19.7525 2.78537 20.1002 3.62474 20.1002 4.49995C20.1002 5.37517 19.7525 6.21453 19.1336 6.8334C18.5148 7.45227 17.6754 7.79995 16.8002 7.79995C15.925 7.79995 15.0856 7.45227 14.4667 6.8334C13.8479 6.21453 13.5002 5.37517 13.5002 4.49995C13.5002 3.62474 13.8479 2.78537 14.4667 2.1665C15.0856 1.54763 15.925 1.19995 16.8002 1.19995ZM17.4002 22.8C18.8324 22.8 20.2059 22.231 21.2186 21.2183C22.2313 20.2056 22.8002 18.8321 22.8002 17.4C22.8002 15.9678 22.2313 14.5943 21.2186 13.5816C20.2059 12.5689 18.8324 12 17.4002 12C15.968 12 14.5945 12.5689 13.5818 13.5816C12.5691 14.5943 12.0002 15.9678 12.0002 17.4C12.0002 18.8321 12.5691 20.2056 13.5818 21.2183C14.5945 22.231 15.968 22.8 17.4002 22.8ZM17.4002 14.4C17.5593 14.4 17.7119 14.4632 17.8245 14.5757C17.937 14.6882 18.0002 14.8408 18.0002 15V16.8H19.8002C19.9593 16.8 20.1119 16.8632 20.2245 16.9757C20.337 17.0882 20.4002 17.2408 20.4002 17.4C20.4002 17.5591 20.337 17.7117 20.2245 17.8242C20.1119 17.9367 19.9593 18 19.8002 18H18.0002V19.8C18.0002 19.9591 17.937 20.1117 17.8245 20.2242C17.7119 20.3367 17.5593 20.4 17.4002 20.4C17.2411 20.4 17.0885 20.3367 16.9759 20.2242C16.8634 20.1117 16.8002 19.9591 16.8002 19.8V18H15.0002C14.8411 18 14.6885 17.9367 14.5759 17.8242C14.4634 17.7117 14.4002 17.5591 14.4002 17.4C14.4002 17.2408 14.4634 17.0882 14.5759 16.9757C14.6885 16.8632 14.8411 16.8 15.0002 16.8H16.8002V15C16.8002 14.8408 16.8634 14.6882 16.9759 14.5757C17.0885 14.4632 17.2411 14.4 17.4002 14.4Z" fill="#818181"/>
</svg>