<svg width="16" height="16" viewBox="0 0 16 16" fill="none" xmlns="http://www.w3.org/2000/svg">
<g id="eye">
<path id="Vector" d="M15.9033 7.59443C14.3969 4.65527 11.4147 2.66666 7.99998 2.66666C4.58526 2.66666 1.60221 4.65666 0.0966515 7.59471C0.0331076 7.72041 0 7.85928 0 8.00013C0 8.14097 0.0331076 8.27985 0.0966515 8.40555C1.60304 11.3447 4.58526 13.3333 7.99998 13.3333C11.4147 13.3333 14.3978 11.3433 15.9033 8.40527C15.9669 8.27957 16 8.1407 16 7.99985C16 7.859 15.9669 7.72013 15.9033 7.59443ZM7.99998 12C7.20886 12 6.4355 11.7654 5.7777 11.3259C5.11991 10.8863 4.60722 10.2616 4.30447 9.53072C4.00172 8.79982 3.9225 7.99555 4.07684 7.21963C4.23118 6.4437 4.61215 5.73097 5.17156 5.17156C5.73097 4.61215 6.4437 4.23119 7.21962 4.07685C7.99555 3.92251 8.79981 4.00172 9.53072 4.30447C10.2616 4.60722 10.8863 5.11991 11.3259 5.77771C11.7654 6.43551 12 7.20886 12 7.99999C12.0002 8.52535 11.897 9.04561 11.696 9.53103C11.4951 10.0164 11.2005 10.4575 10.829 10.829C10.4575 11.2005 10.0164 11.4951 9.53102 11.696C9.0456 11.897 8.52534 12.0002 7.99998 12ZM7.99998 5.33332C7.76197 5.33665 7.52548 5.37206 7.29693 5.4386C7.48532 5.69462 7.57573 6.00968 7.55175 6.32664C7.52777 6.6436 7.391 6.94147 7.16623 7.16624C6.94147 7.39101 6.6436 7.52778 6.32664 7.55176C6.00968 7.57573 5.69462 7.48533 5.4386 7.29693C5.29281 7.83404 5.31913 8.40334 5.51384 8.92471C5.70856 9.44608 6.06187 9.89326 6.52404 10.2033C6.98622 10.5134 7.53399 10.6707 8.09025 10.6531C8.64652 10.6355 9.18327 10.444 9.62495 10.1054C10.0666 9.76675 10.391 9.29816 10.5524 8.76554C10.7139 8.23292 10.7042 7.66309 10.5248 7.13626C10.3454 6.60942 10.0053 6.15211 9.55238 5.82869C9.09946 5.50526 8.55653 5.33201 7.99998 5.33332Z" fill="#6A6C71"/>
</g>
</svg>
