<svg width="25" height="24" viewBox="0 0 25 24" fill="none" xmlns="http://www.w3.org/2000/svg">
<g id="Icon/Home/Filled">
<path id="Shape" d="M13.1815 7.16497C12.7534 6.94664 12.2466 6.94664 11.8185 7.16497L6.31851 9.96997C5.81621 10.2261 5.5 10.7424 5.5 11.3062V18C5.5 19.6568 6.84315 21 8.5 21H9.36047C9.98981 21 10.5 20.4898 10.5 19.8604V17C10.5 15.8954 11.3954 14.9999 12.5 14.9999C13.6046 14.9999 14.5 15.8954 14.5 17V19.8604C14.5 20.4898 15.0102 21 15.6395 21H16.5C18.1569 21 19.5 19.6568 19.5 18V11.3062C19.5 10.7424 19.1838 10.2261 18.6815 9.96997L13.1815 7.16497Z" fill="#818181"/>
<path id="Shape_2" fill-rule="evenodd" clip-rule="evenodd" d="M3.60555 8.44721C3.85254 8.94119 4.45321 9.14141 4.94719 8.89442L12.5 5.11803L20.0528 8.89442C20.5467 9.14141 21.1474 8.94119 21.3944 8.44721C21.6414 7.95323 21.4412 7.35256 20.9472 7.10557L12.9472 3.10557C12.6657 2.9648 12.3343 2.9648 12.0528 3.10557L4.05276 7.10557C3.55878 7.35256 3.35856 7.95323 3.60555 8.44721Z" fill="#818181"/>
</g>
</svg>
