<svg width="24" height="24" viewBox="0 0 24 24" fill="none" xmlns="http://www.w3.org/2000/svg">
<g id="mingcute:world-fill" clip-path="url(#clip0_188_2192)">
<g id="Group">
<path id="Vector" d="M21.43 15.335C20.74 17.2844 19.4627 18.9721 17.7739 20.1657C16.0852 21.3592 14.068 22.0001 12 22C7.64705 22 3.94305 19.218 2.57005 15.335C5.40464 17.0824 8.67013 18.0053 12 18C15.458 18 18.688 17.025 21.43 15.335ZM21.126 7.905C21.7739 9.34694 22.0694 10.9223 21.988 12.501C19.1546 14.7713 15.6308 16.0058 12 16C8.22205 16 4.75005 14.69 2.01205 12.5C1.9309 10.9216 2.22636 9.34663 2.87405 7.905C5.49051 9.91669 8.69963 11.005 12 11C15.434 11 18.598 9.846 21.126 7.905ZM12 2C13.5856 1.99898 15.1486 2.37536 16.5599 3.09803C17.9711 3.82071 19.1901 4.86892 20.116 6.156C17.8139 8.00119 14.9504 9.00459 12 9C8.93005 9 6.10805 7.936 3.88405 6.156C4.8098 4.86874 6.02875 3.8204 7.44006 3.0977C8.85137 2.37501 10.4145 1.99873 12 2Z" fill="#784FFE"/>
</g>
</g>
<defs>
<clipPath id="clip0_188_2192">
<rect width="24" height="24" fill="white"/>
</clipPath>
</defs>
</svg>
