<svg width="20" height="20" viewBox="0 0 20 20" fill="none" xmlns="http://www.w3.org/2000/svg">
<g id="align-justify">
<path id="Vector" d="M18.125 16.25H1.875C1.70924 16.25 1.55027 16.3158 1.43306 16.4331C1.31585 16.5503 1.25 16.7092 1.25 16.875L1.25 18.125C1.25 18.2908 1.31585 18.4497 1.43306 18.5669C1.55027 18.6842 1.70924 18.75 1.875 18.75H18.125C18.2908 18.75 18.4497 18.6842 18.5669 18.5669C18.6842 18.4497 18.75 18.2908 18.75 18.125V16.875C18.75 16.7092 18.6842 16.5503 18.5669 16.4331C18.4497 16.3158 18.2908 16.25 18.125 16.25ZM18.125 11.25H1.875C1.70924 11.25 1.55027 11.3158 1.43306 11.4331C1.31585 11.5503 1.25 11.7092 1.25 11.875L1.25 13.125C1.25 13.2908 1.31585 13.4497 1.43306 13.5669C1.55027 13.6842 1.70924 13.75 1.875 13.75H18.125C18.2908 13.75 18.4497 13.6842 18.5669 13.5669C18.6842 13.4497 18.75 13.2908 18.75 13.125V11.875C18.75 11.7092 18.6842 11.5503 18.5669 11.4331C18.4497 11.3158 18.2908 11.25 18.125 11.25ZM18.125 6.25H1.875C1.70924 6.25 1.55027 6.31585 1.43306 6.43306C1.31585 6.55027 1.25 6.70924 1.25 6.875L1.25 8.125C1.25 8.29076 1.31585 8.44973 1.43306 8.56694C1.55027 8.68415 1.70924 8.75 1.875 8.75H18.125C18.2908 8.75 18.4497 8.68415 18.5669 8.56694C18.6842 8.44973 18.75 8.29076 18.75 8.125V6.875C18.75 6.70924 18.6842 6.55027 18.5669 6.43306C18.4497 6.31585 18.2908 6.25 18.125 6.25ZM18.125 1.25H1.875C1.70924 1.25 1.55027 1.31585 1.43306 1.43306C1.31585 1.55027 1.25 1.70924 1.25 1.875L1.25 3.125C1.25 3.29076 1.31585 3.44973 1.43306 3.56694C1.55027 3.68415 1.70924 3.75 1.875 3.75H18.125C18.2908 3.75 18.4497 3.68415 18.5669 3.56694C18.6842 3.44973 18.75 3.29076 18.75 3.125V1.875C18.75 1.70924 18.6842 1.55027 18.5669 1.43306C18.4497 1.31585 18.2908 1.25 18.125 1.25Z" fill="#939BA8"/>
</g>
</svg>
