<svg xmlns="http://www.w3.org/2000/svg" width="24" height="24" viewBox="0 0 24 24" fill="none">
  <path d="M23.4 10.1999H21V7.7999C21 7.4699 20.73 7.1999 20.4 7.1999H19.2C18.87 7.1999 18.6 7.4699 18.6 7.7999V10.1999H16.2C15.87 10.1999 15.6 10.4699 15.6 10.7999V11.9999C15.6 12.3299 15.87 12.5999 16.2 12.5999H18.6V14.9999C18.6 15.3299 18.87 15.5999 19.2 15.5999H20.4C20.73 15.5999 21 15.3299 21 14.9999V12.5999H23.4C23.73 12.5999 24 12.3299 24 11.9999V10.7999C24 10.4699 23.73 10.1999 23.4 10.1999ZM8.4 11.9999C11.0513 11.9999 13.2 9.85115 13.2 7.1999C13.2 4.54865 11.0513 2.3999 8.4 2.3999C5.74875 2.3999 3.6 4.54865 3.6 7.1999C3.6 9.85115 5.74875 11.9999 8.4 11.9999ZM11.76 13.1999H11.1337C10.3013 13.5824 9.375 13.7999 8.4 13.7999C7.425 13.7999 6.5025 13.5824 5.66625 13.1999H5.04C2.2575 13.1999 0 15.4574 0 18.2399V19.7999C0 20.7937 0.80625 21.5999 1.8 21.5999H15C15.9938 21.5999 16.8 20.7937 16.8 19.7999V18.2399C16.8 15.4574 14.5425 13.1999 11.76 13.1999Z" fill="white"/>
</svg>